<svg t="1674488908083" class="icon" viewBox="0 0 1024 1024" version="1.1" xmlns="http://www.w3.org/2000/svg" p-id="1145" width="200" height="200"><path d="M801.152 170.922667c28.202667 0 51.072 22.869333 51.072 51.114666v579.114667c0 28.202667-22.869333 51.072-51.072 51.072H222.037333a51.114667 51.114667 0 0 1-51.114666-51.072V222.037333c0-28.245333 22.869333-51.114667 51.114666-51.114666h579.114667z m0 51.114666H222.037333v579.114667h579.114667V222.037333z m-340.565333 386.688l202.026666-233.088a25.557333 25.557333 0 0 1 40.234667 31.402667l-1.621333 2.048-222.208 256.384-1.877334 1.792a27.306667 27.306667 0 0 1-2.474666 1.834667l-2.176 1.28-1.877334 0.938666-2.346666 0.853334-1.792 0.512-1.706667 0.341333-1.92 0.256-2.346667 0.128-2.432-0.128-3.029333-0.469333-2.474667-0.682667-1.109333-0.384-2.346667-1.024-2.176-1.194667-2.133333-1.536-1.92-1.621333-1.792-1.877333-102.186667-119.253334a25.557333 25.557333 0 0 1 36.992-35.157333l1.792 1.92 82.901334 96.725333 202.026666-233.088-202.026666 233.088z" fill="#707070" p-id="1146"></path></svg>