<svg t="1674633779532" class="icon" viewBox="0 0 1024 1024" version="1.1" xmlns="http://www.w3.org/2000/svg" p-id="5469" width="200" height="200"><path d="M994.7 670.5l-27.7-1s-9.9-25.5-13.4-31.9l19.8-17.7c10.7-10.7 10.7-29.3 0-40l-26.6-26.6c-10.7-10.7-29.3-10.7-39.9 0l-21.3 21.3c-10.7-5.3-21.3-10.7-32-13.3V532c0-16-13.3-26.6-26.6-26.6h-37.3c-16 0-26.6 13.3-26.6 26.6v29.3c-10.7 2.7-21.3 8-32 13.3l-18.6-21.3c-10.7-10.7-29.3-10.7-39.9 0L645.8 580c-10.7 10.7-10.7 29.3 0 40l21.3 21.3c-5.3 10.7-10.7 21.3-13.3 32h-29.3c-16 0-26.6 13.3-26.6 26.6v37.3c0 16 13.3 26.6 26.6 26.6h29.3c2.7 10.7 8 21.3 13.3 32L645.8 817c-10.7 10.7-10.7 29.3 0 40l26.6 26.6c10.7 10.7 29.3 10.7 39.9 0l21.3-21.3c10.7 5.3 21.3 10.7 32 13.3v29.3c0 16 13.3 26.6 26.6 26.6h37.3c16 0 26.6-13.3 26.6-26.6v-29.3c10.7-2.7 21.3-8 32-13.3l21.3 21.3c10.7 10.7 29.3 10.7 39.9 0l26.6-26.6c10.7-10.7 10.7-29.3 0-40l-21.3-21.3c5.3-10.7 10.7-21.3 13.3-32h29.3c16 0 26.6-13.3 26.6-26.6v-37.3c0.2-15.9-13.1-29.3-29.1-29.3zM810.9 793.1c-39.9 0-74.6-34.6-74.6-74.6 0-39.9 34.6-74.6 74.6-74.6 39.9 0 74.6 34.6 74.6 74.6 0 39.9-34.6 74.6-74.6 74.6z" fill="#ffffff" p-id="5470"></path><path d="M810.9 442.2c24.2 0 47.3 4.1 69.7 10 1.1 0.1 2 0.1 3.1 0.3v-26.1h-70L812.1 178H446.8V92.5h-273L62.9 203.1v217.2H0v434.8h572.1c-23.2-40.5-37.5-86.7-37.5-136.7 0-152.5 123.7-276.2 276.3-276.2zM694.4 217h78.9v202.3h-78.9V217z m-126.2 0h78.9v202.3h-78.9V217z m-457.7 31.4H223V139.2h187.4v280.2H110.5v-171z m300.2 420H189.8v-109h220.9v109z m110.1-249.1h-78.9V217h78.9v202.3zM410.7 668.4z" fill="#ffffff" p-id="5471"></path></svg>