<svg t="1674404498551" class="icon" viewBox="0 0 1024 1024" version="1.1" xmlns="http://www.w3.org/2000/svg" p-id="1464" width="200" height="200"><path d="M899.1 143.4H145.7c-44.8 0-81.5 16.7-81.5 61.5v167.3c0 8.4 6.8 15.2 15.2 15.2h31.1c8.4 0 15.2-6.8 15.2-15.2V218.8c0-8.1 6.6-14.7 14.7-14.7h746.8c6.5 0 11.9 5.3 11.9 11.9v582c0 9.8-7.9 17.7-17.7 17.7h-742c-7.5 0-13.6-6.1-13.6-13.6V645.7c0-7.6-6.2-13.8-13.8-13.8H78c-7.6 0-13.8 6.2-13.8 13.8v169.6c0 44.8 36.7 60.7 81.5 60.7h733.4c44.8 0 81.5-36.7 81.5-81.5V224.9c-0.1-45-16.5-81.5-61.5-81.5zM476.3 648.6l150.2-128.8c4.3-3.7 4.4-10.4 0.1-14.2l-149-133.4c-2.3-2.1-6-0.4-6 2.7V479H77.1c-7.1 0-12.9 5.8-12.9 12.9v35.8c0 7.1 5.8 12.9 12.9 12.9h394.6v106.3c-0.1 2.2 3.2 3 4.6 1.7z" p-id="1465"></path></svg>