<svg t="1674459150284" class="icon" viewBox="0 0 1024 1024" version="1.1" xmlns="http://www.w3.org/2000/svg" p-id="1143" width="200" height="200"><path d="M796.458667 170.666667C827.733333 170.666667 853.333333 196.266667 853.333333 227.541333v568.917334C853.333333 827.733333 827.733333 853.333333 796.458667 853.333333H227.541333C196.266667 853.333333 170.666667 827.733333 170.666667 796.458667V227.541333C170.666667 196.266667 196.266667 170.666667 227.541333 170.666667h568.917334z m3.797333 53.077333H223.744v576.512h576.512V223.744z m-146.048 174.506667h-113.749333V682.666667a28.458667 28.458667 0 0 1-56.917334 0V398.208H369.792a28.458667 28.458667 0 1 1 0-56.874667h284.416a28.458667 28.458667 0 1 1 0 56.874667z" fill="#707070" p-id="1144"></path></svg>