<svg t="1674459280722" class="icon" viewBox="0 0 1024 1024" version="1.1" xmlns="http://www.w3.org/2000/svg" p-id="1440" width="200" height="200"><path d="M242.816 171.434667h535.466667c39.381333 0 71.338667 32 71.338666 71.381333v535.466667c0 39.381333-31.957333 71.338667-71.381333 71.338666H242.816c-39.424 0-71.381333-31.957333-71.381333-71.381333V242.816c0-39.424 32-71.381333 71.381333-71.381333z m0 49.962666a21.418667 21.418667 0 0 0-21.418667 21.418667v535.466667c0 11.776 9.6 21.376 21.418667 21.376h535.466667a21.418667 21.418667 0 0 0 21.376-21.418667V242.816a21.418667 21.418667 0 0 0-21.418667-21.418667H242.816z" fill="#707070" p-id="1441"></path><path d="M271.36 332.074667v392.618666h50.005333V332.074667H271.36z m232.021333 42.837333v128.469333H378.453333v228.48h174.933334v-78.506666h-50.005334v28.501333h-74.922666V553.386667h124.928V324.906667h-174.933334v78.506666h50.005334v-28.501333h74.922666z m195.754667 306.944h-99.370667v50.005333h149.333334V324.906667h-149.333334v50.005333h99.413334v306.944z" fill="#707070" p-id="1442"></path><path d="M599.765333 535.509333h124.373334v-49.92h-124.373334z" fill="#707070" p-id="1443"></path></svg>