<svg t="1674459867424" class="icon" viewBox="0 0 1024 1024" version="1.1" xmlns="http://www.w3.org/2000/svg" p-id="1590" width="200" height="200"><path d="M512 874.666667a362.666667 362.666667 0 1 1 0-725.333334 362.666667 362.666667 0 0 1 0 725.333334z m-0.597333-48.938667a314.325333 314.325333 0 1 0 0-628.650667 314.325333 314.325333 0 0 0 0 628.650667z m0-72.533333a241.792 241.792 0 1 1 0-483.584 241.792 241.792 0 0 1 0 483.584z m0-48.384a193.408 193.408 0 1 0 0-386.816 193.408 193.408 0 0 0 0 386.816z" fill="#707070" p-id="1591"></path></svg>