<svg t="1674636245895" class="icon" viewBox="0 0 1024 1024" version="1.1" xmlns="http://www.w3.org/2000/svg" p-id="1151" width="200" height="200"><path d="M680.533333 829.013333c-10.794667 0-22.954667-3.114667-34.261333-8.789333l-134.186667-67.072L377.173333 820.053333c-10.453333 5.546667-22.144 8.490667-34.005333 8.448-15.573333 0-30.805333-4.906667-43.434667-14.08l-0.384-0.298666a75.605333 75.605333 0 0 1-28.928-72.789334l0.042667-0.298666 27.605333-142.592-104.576-98.005334-0.298666-0.298666a77.866667 77.866667 0 0 1-19.712-75.136l0.298666-0.938667c8.96-27.904 31.786667-47.445333 59.648-51.2l146.56-26.624 66.218667-134.101333A74.666667 74.666667 0 0 1 512.128 170.666667c13.952 0 27.648 4.053333 39.637333 11.690666 11.818667 7.381333 21.162667 18.133333 26.752 30.933334l65.450667 132.864 147.072 25.813333a73.088 73.088 0 0 1 58.709333 51.285333c8.576 26.666667 1.493333 55.893333-18.346666 75.648l-0.554667 0.554667-105.045333 99.072 26.538666 142.976a73.856 73.856 0 0 1-28.586666 72.362667c-11.605333 9.642667-27.306667 15.146667-43.264 15.146666z m-4.181333-51.84c4.693333 2.218667 8.234667 2.688 9.216 2.688a13.098667 13.098667 0 0 0 8.192-2.56l0.810667-0.64a17.92 17.92 0 0 0 7.509333-17.749333v-0.085333l-33.066667-178.346667 11.562667-11.562667 119.978667-112.554666a18.176 18.176 0 0 0 4.437333-18.688l-0.256-0.725334-0.213333-0.725333a16.213333 16.213333 0 0 0-12.928-11.306667l-1.066667-0.170666-181.461333-31.530667L527.786667 227.84l-0.298667-0.682667c-2.133333-4.906667-8.96-9.088-15.018667-9.088a17.877333 17.877333 0 0 0-15.616 10.410667l-0.042666 0.128-81.578667 164.181333-182.357333 33.152c-8.533333 1.066667-12.458667 7.125333-14.293334 12.245334a22.357333 22.357333 0 0 0 5.12 19.456l133.248 123.989333-5.376 16.128-31.061333 161.365333a18.218667 18.218667 0 0 0 7.253333 17.322667l0.170667 0.085333a16.554667 16.554667 0 0 0 9.813333 3.114667 16.256 16.256 0 0 0 7.808-1.92l0.896-0.426667 165.717334-82.218666 164.181333 82.090666z" fill="#707070" p-id="1152"></path></svg>