<svg t="1674569254687" class="icon" viewBox="0 0 1024 1024" version="1.1" xmlns="http://www.w3.org/2000/svg" p-id="2765" width="200" height="200"><path d="M970.105263 53.894737H53.894737v538.947368h916.210526V53.894737zM107.789474 538.947368V107.789474h808.421052v431.157894H107.789474zM744.286316 970.105263L862.315789 852.075789l-38.265263-38.265263-80.303158 80.303158V646.736842h-53.894736v247.376842l-80.303158-80.303158-38.265263 38.265263L689.313684 970.105263l0.538948-0.538947V970.105263h53.894736v-0.538947zM334.686316 970.105263l118.029473-118.029474-38.265263-38.265263-80.303158 80.303158V646.736842h-53.894736v247.376842L199.949474 813.810526l-38.265263 38.265263L279.713684 970.105263l0.538948-0.538947V970.105263h53.894736v-0.538947z" fill="#707070" p-id="2766"></path><path d="M970.105263 215.578947v53.894737H53.894737V215.578947zM970.105263 377.263158v53.894737H53.894737V377.263158z" fill="#707070" p-id="2767"></path></svg>