<svg t="1674647400388" class="icon" viewBox="0 0 1024 1024" version="1.1" xmlns="http://www.w3.org/2000/svg" p-id="1449" width="200" height="200"><path d="M242.048 170.666667h535.466667c39.381333 0 71.338667 32 71.338666 71.381333v535.466667c0 39.381333-31.957333 71.338667-71.381333 71.338666H242.048C202.666667 848.853333 170.666667 816.896 170.666667 777.472V242.048C170.666667 202.666667 202.666667 170.666667 242.048 170.666667z m0 49.962666a21.418667 21.418667 0 0 0-21.418667 21.418667v535.466667c0 11.776 9.6 21.376 21.418667 21.376h535.466667a21.418667 21.418667 0 0 0 21.376-21.418667V242.048a21.418667 21.418667 0 0 0-21.418667-21.418667H242.048z m92.970667 169.557334l174.122666 185.813333 174.293334-185.856a21.333333 21.333333 0 0 1 32.938666 1.28 29.354667 29.354667 0 0 1-1.152 37.674667s-191.146667 203.733333-191.573333 204.117333a21.077333 21.077333 0 0 1-30.421333-1.365333l-190.037334-202.752a29.397333 29.397333 0 0 1-0.938666-37.418667 21.333333 21.333333 0 0 1 32.768-1.493333z" fill="#707070" p-id="1450"></path></svg>