<svg t="1674459892385" class="icon" viewBox="0 0 1024 1024" version="1.1" xmlns="http://www.w3.org/2000/svg" p-id="1738" width="200" height="200"><path d="M399.701333 346.368a180.48 180.48 0 0 0-128.213333 53.12 180.693333 180.693333 0 0 0-53.12 128.213333 180.48 180.48 0 0 0 53.12 128.256 180.693333 180.693333 0 0 0 128.213333 53.077334 180.48 180.48 0 0 0 128.256-53.077334 180.693333 180.693333 0 0 0 53.077334-128.256 180.48 180.48 0 0 0-53.077334-128.213333 180.693333 180.693333 0 0 0-128.256-53.12z m0-47.701333a229.034667 229.034667 0 1 1 0 458.112A229.034667 229.034667 0 0 1 399.701333 298.666667z" fill="#707070" p-id="1739"></path><path d="M399.701333 298.666667h267.264a229.034667 229.034667 0 1 1 0 458.112H399.701333A229.034667 229.034667 0 1 1 399.701333 298.666667z m0 47.701333a181.333333 181.333333 0 0 0 0 362.666667h267.264a181.333333 181.333333 0 1 0 0-362.666667H399.701333z" fill="#707070" p-id="1740"></path></svg>