<svg t="1674459170322" class="icon" viewBox="0 0 1024 1024" version="1.1" xmlns="http://www.w3.org/2000/svg" p-id="1291" width="200" height="200"><path d="M768 170.666667H256c-46.933333 0-85.333333 38.4-85.333333 85.333333v512c0 46.933333 38.4 85.333333 85.333333 85.333333h512c46.933333 0 85.333333-38.4 85.333333-85.333333V256c0-46.933333-38.4-85.333333-85.333333-85.333333z m34.133333 597.333333a34.56 34.56 0 0 1-34.133333 34.133333H256a34.56 34.56 0 0 1-34.133333-34.133333V256c0-18.517333 15.658667-34.133333 34.133333-34.133333h512c18.517333 0 34.133333 15.658667 34.133333 34.133333v512z" fill="#707070" p-id="1292"></path><path d="M703.104 517.290667h-138.666667a25.6 25.6 0 1 0 0 51.2h138.666667a25.6 25.6 0 1 0 0-51.2z m0 128.682666h-138.666667a25.6 25.6 0 0 0 0 51.2h138.666667a25.6 25.6 0 1 0 0-51.2z m-138.666667-267.946666a25.6 25.6 0 0 0 0-51.2H303.104a25.6 25.6 0 1 0 0 51.2h105.088v293.546666a25.6 25.6 0 1 0 51.2 0V378.026667h105.045333z" fill="#707070" p-id="1293"></path></svg>