<svg t="1674648367625" class="icon" viewBox="0 0 1024 1024" version="1.1" xmlns="http://www.w3.org/2000/svg" p-id="1705" width="200" height="200"><path d="M562.986667 747.946667l-57.216-149.290667H291.072L237.397333 747.946667H178.389333L364.373333 266.794667h62.634667l198.570667 481.109333h-62.634667z m-257.578667-191.445334h182.442667L393.045333 319.488l-87.637333 237.013333zM713.301333 742.656c-26.88 0-48.341333-7.04-62.634666-19.328-14.293333-12.288-21.461333-29.866667-21.461334-49.152 0-12.288 3.584-22.826667 8.96-31.616a53.76 53.76 0 0 1 21.461334-22.826667c8.96-5.290667 19.626667-10.538667 30.378666-14.08 8.96-1.706667 21.504-3.498667 39.381334-6.997333 35.754667-3.498667 62.592-8.789333 80.512-15.786667l3.584-1.749333v-15.829333c0-19.285333-5.376-33.365333-14.336-42.112-12.501333-10.538667-30.421333-15.786667-53.674667-15.786667s-39.338667 3.498667-50.090667 12.245333c-10.709333 7.04-17.92 19.328-23.253333 36.864l-35.754667-3.498666c3.541333-15.786667 8.96-28.074667 17.877334-36.864 8.96-10.538667 21.461333-19.328 37.546666-24.576a186.24 186.24 0 0 1 57.258667-8.789334c21.461333 0 39.381333 1.749333 53.674667 7.04 12.501333 5.248 23.253333 10.538667 28.586666 17.536 5.418667 7.04 10.752 15.786667 12.544 28.117334 1.792 6.997333 1.792 21.034667 1.792 38.613333v166.826667h-30.421333v-43.946667l-8.96 7.04c-16.085333 14.08-32.170667 22.826667-46.506667 28.117333a105.984 105.984 0 0 1-46.506666 10.538667z m91.221334-135.253333c-16.085333 7.04-39.381333 12.330667-71.552 15.829333-19.669333 3.541333-32.213333 5.290667-41.173334 8.789333-8.96 3.498667-16.085333 8.789333-19.626666 15.786667a38.101333 38.101333 0 0 0-7.210667 22.826667c0 14.08 5.376 24.576 16.128 33.365333 10.709333 8.789333 25.045333 12.288 42.922667 12.288 17.92 0 34.005333-3.498667 48.298666-12.288 14.336-6.997333 25.045333-19.285333 32.213334-33.365333 5.376-10.538667 7.168-26.325333 7.168-45.653334v-24.576l-7.168 7.04z" fill="#707070" p-id="1706"></path><path d="M749.056 488.064c21.461333 0 37.546667 1.706667 51.882667 6.997333 12.544 5.290667 21.461333 10.538667 26.837333 15.786667 5.376 7.04 8.96 15.786667 12.501333 24.618667 1.792 5.248 1.792 15.786667 1.792 38.613333v161.536h-19.626666v-49.152l-17.92 14.037333c-16.085333 12.288-30.421333 22.826667-44.714667 28.074667-14.336 5.290667-28.629333 7.04-44.757333 7.04-26.794667 0-46.506667-5.248-59.008-17.578667-12.544-12.288-19.669333-26.325333-19.669334-45.653333 0-10.496 1.749333-21.034667 7.125334-29.866667 5.376-8.746667 12.544-15.786667 19.712-21.034666 8.96-5.248 17.877333-10.538667 28.586666-12.288 8.96-1.749333 21.504-3.498667 37.546667-7.04 37.589333-3.498667 64.426667-8.746667 82.346667-15.786667l7.125333-1.749333V565.290667c0-21.077333-5.333333-36.864-16.085333-45.653334-12.544-12.288-32.213333-17.536-57.258667-17.536-23.253333 0-41.130667 3.498667-53.674667 12.288-10.709333 6.997333-17.877333 19.285333-23.253333 35.114667l-23.253333-3.498667c3.584-12.330667 8.96-21.077333 14.336-29.866666 7.125333-10.538667 19.626667-17.578667 33.962666-22.826667 16.128-1.749333 34.005333-5.248 55.466667-5.248z m-25.045333 235.264c19.669333 0 35.797333-3.498667 51.882666-12.288 16.085333-8.789333 26.837333-19.328 34.005334-35.114667 5.333333-12.288 8.96-28.117333 8.96-47.402666v-31.616l-14.336 5.248a343.893333 343.893333 0 0 1-69.76 15.786666c-19.712 3.541333-34.005333 5.290667-41.173334 8.832-8.96 3.498667-17.877333 10.496-21.461333 17.536a48.853333 48.853333 0 0 0-7.168 26.325334c0 14.08 5.376 26.368 17.92 36.906666 5.376 12.288 19.626667 15.786667 41.130667 15.786667z m25.045333-245.802667c-23.253333 0-42.922667 3.498667-59.050667 8.746667-17.877333 5.290667-30.378667 14.08-39.338666 26.368-8.96 10.538667-16.085333 26.325333-19.669334 43.861333l42.922667 5.290667c5.376-17.578667 12.544-31.573333 21.461333-38.613333 10.752-7.04 25.045333-10.538667 46.506667-10.538667 23.253333 0 39.381333 5.248 50.090667 14.037333 8.96 6.997333 12.544 19.328 12.544 36.864v12.288c-17.92 5.290667-42.922667 10.538667-80.512 15.786667-17.92 1.792-30.421333 3.541333-39.338667 7.04a135.509333 135.509333 0 0 0-32.213333 14.08c-8.96 6.997333-17.92 14.037333-23.253334 24.533333-5.376 10.538667-8.96 22.826667-8.96 35.157334 0 21.034667 7.168 38.613333 23.253334 52.650666 16.128 14.08 37.546667 21.077333 66.218666 21.077334 17.877333 0 33.962667-3.498667 50.090667-8.789334 16.085333-5.248 30.378667-15.786667 48.298667-29.866666v40.405333h42.922666v-172.074667c0-19.328 0-33.365333-1.792-40.362666-1.792-12.288-7.168-21.077333-14.293333-29.866667a81.450667 81.450667 0 0 0-30.421333-19.328c-14.336-5.248-32.213333-8.746667-55.466667-8.746667z m-25.045333 235.264c-17.92 0-30.421333-3.498667-39.338667-12.288a37.248 37.248 0 0 1-14.336-29.866666c0-6.997333 1.792-14.037333 5.376-21.034667 3.584-7.04 10.752-10.538667 17.92-14.08 7.125333-3.498667 21.418667-6.997333 39.338667-8.746667 32.170667-5.290667 57.216-10.538667 73.344-15.786666v15.786666c0 19.285333-1.792 33.322667-7.168 43.861334-7.168 12.288-16.085333 22.826667-30.421334 29.866666-12.501333 8.789333-28.586667 12.288-44.714666 12.288z" fill="#707070" p-id="1707"></path></svg>