<svg t="1674655597482" class="icon" viewBox="0 0 1024 1024" version="1.1" xmlns="http://www.w3.org/2000/svg" p-id="6704" width="200" height="200"><path d="M554.666667 682.666667h85.333333v128h-213.333333v-128h85.333333v-128H256v128h85.333333v128H128v-128h85.333333v-170.666667h298.666667V384h-85.333333V256h213.333333v128h-85.333333v128h298.666666v170.666667h85.333334v128h-213.333334v-128h85.333334v-128h-256v128z m42.666666-384h-128v42.666666h128V298.666667zM298.666667 725.333333H170.666667v42.666667h128v-42.666667z m597.333333 0h-128v42.666667h128v-42.666667z m-298.666667 0h-128v42.666667h128v-42.666667z" fill="currentColor" p-id="6705"></path></svg>